<svg xmlns="http://www.w3.org/2000/svg" xmlns:xlink="http://www.w3.org/1999/xlink" width="500" zoomAndPan="magnify" viewBox="0 0 375 374.999991" height="500" preserveAspectRatio="xMidYMid meet" version="1.0"><defs><g/></defs><path fill="#3c4c54" d="M 175.101562 0 L 207.429688 0 L 207.429688 667.28125 L 219.03125 667.28125 L 219.03125 799.078125 L 162.667969 799.078125 L 162.667969 667.28125 L 175.101562 667.28125 Z M 175.101562 0 " fill-opacity="1" fill-rule="evenodd"/><path fill="#2f3e46" d="M 207.429688 0 L 207.429688 667.28125 L 219.03125 667.28125 L 219.03125 799.078125 L 190.851562 799.078125 L 190.851562 0 Z M 207.429688 0 " fill-opacity="1" fill-rule="evenodd"/><path fill="#84a98c" d="M 38.328125 1.65625 C 106.300781 14.921875 166.8125 27.355469 220.691406 37.300781 C 268.769531 46.417969 311.871094 55.539062 350.832031 62.996094 C 355.804688 63.828125 359.949219 70.457031 359.949219 77.917969 C 359.949219 90.351562 359.949219 102.785156 359.949219 116.046875 C 359.949219 128.484375 359.949219 140.917969 359.949219 153.351562 C 359.949219 159.980469 355.804688 165.785156 350.832031 165.785156 C 311.871094 163.296875 268.769531 159.980469 220.691406 156.664062 C 167.640625 153.351562 107.128906 149.207031 39.988281 144.230469 C 30.039062 143.402344 21.75 135.113281 21.75 125.167969 C 21.75 106.929688 21.75 89.523438 21.75 71.285156 C 21.75 53.050781 21.75 34.816406 21.75 17.40625 C 21.75 7.460938 30.039062 0.828125 39.15625 2.488281 Z M 38.328125 1.65625 " fill-opacity="1" fill-rule="evenodd"/><path fill="#ffffff" d="M 38.328125 12.433594 C 36.671875 12.433594 35.011719 12.433594 33.355469 13.261719 C 32.527344 14.089844 31.695312 15.75 31.695312 17.40625 C 31.695312 35.644531 31.695312 53.050781 31.695312 71.285156 C 31.695312 88.695312 31.695312 106.929688 31.695312 124.335938 C 31.695312 125.996094 32.527344 127.652344 33.355469 129.3125 C 34.183594 130.96875 36.671875 131.796875 38.328125 131.796875 C 106.300781 136.773438 165.980469 141.746094 219.03125 145.890625 C 267.109375 150.035156 310.214844 153.351562 349.171875 155.835938 C 350.003906 155.835938 350.832031 155.835938 351.660156 155.007812 C 352.488281 154.179688 352.488281 153.351562 352.488281 151.691406 C 352.488281 139.257812 352.488281 126.824219 352.488281 113.5625 C 352.488281 101.128906 352.488281 87.867188 352.488281 75.429688 C 352.488281 73.773438 352.488281 72.945312 351.660156 72.117188 C 350.832031 71.285156 350.003906 70.457031 349.171875 70.457031 C 310.214844 62.996094 267.109375 54.707031 219.03125 46.417969 C 165.152344 36.472656 105.472656 24.867188 37.5 12.433594 Z M 30.867188 10.777344 C 32.527344 9.117188 35.011719 8.289062 38.328125 9.117188 C 106.300781 22.378906 166.8125 33.15625 219.863281 43.933594 C 267.9375 53.050781 311.042969 61.339844 350.003906 68.800781 C 351.660156 68.800781 352.488281 70.457031 353.316406 71.285156 C 354.148438 72.945312 354.976562 74.601562 354.976562 77.089844 C 354.976562 89.523438 354.976562 102.785156 354.976562 115.21875 C 354.976562 127.652344 354.976562 140.085938 354.976562 153.351562 C 354.976562 155.007812 354.148438 157.496094 353.316406 158.324219 C 352.488281 159.980469 350.832031 159.980469 350.003906 159.980469 C 311.042969 156.664062 267.9375 154.179688 219.863281 150.035156 C 166.8125 145.890625 106.300781 141.746094 39.15625 136.773438 C 36.671875 136.773438 34.183594 135.113281 31.695312 133.457031 C 30.039062 131.796875 28.382812 128.484375 28.382812 125.996094 C 28.382812 108.589844 28.382812 90.351562 28.382812 72.117188 C 28.382812 53.878906 28.382812 36.472656 28.382812 18.234375 C 28.382812 15.75 29.210938 13.261719 31.695312 11.605469 Z M 30.867188 10.777344 " fill-opacity="1" fill-rule="nonzero"/><path fill="#52796f" d="M 359.949219 128.484375 C 283.6875 143.402344 216.546875 156.664062 156.035156 168.269531 C 102.15625 179.046875 54.078125 188.164062 10.144531 197.28125 C 4.34375 198.113281 0.199219 205.570312 0.199219 213.859375 C 0.199219 227.953125 0.199219 242.042969 0.199219 256.136719 C 0.199219 270.226562 0.199219 284.320312 0.199219 298.410156 C 0.199219 305.871094 5.171875 312.503906 10.144531 311.671875 C 54.078125 308.359375 102.15625 305.042969 155.207031 301.726562 C 214.886719 297.582031 282.03125 293.4375 357.460938 287.636719 C 368.238281 286.804688 377.355469 276.859375 377.355469 266.082031 C 377.355469 246.1875 377.355469 226.292969 377.355469 205.570312 C 377.355469 185.679688 377.355469 164.953125 377.355469 145.0625 C 377.355469 133.457031 368.238281 125.996094 357.460938 128.484375 Z M 359.949219 128.484375 " fill-opacity="1" fill-rule="evenodd"/><path fill="#ffffff" d="M 359.949219 140.917969 C 361.605469 140.917969 364.09375 140.917969 364.921875 142.574219 C 366.582031 143.402344 367.410156 145.0625 367.410156 147.546875 C 367.410156 167.441406 367.410156 187.335938 367.410156 207.230469 C 367.410156 227.125 367.410156 247.019531 367.410156 266.910156 C 367.410156 268.570312 366.582031 271.054688 364.921875 272.714844 C 363.265625 274.371094 361.605469 275.199219 359.949219 275.199219 C 284.515625 281.003906 217.375 286.804688 157.691406 290.949219 C 104.640625 295.09375 55.734375 299.238281 12.632812 302.554688 C 11.804688 302.554688 10.972656 301.726562 10.144531 300.898438 C 9.316406 300.070312 9.316406 298.410156 9.316406 297.582031 C 9.316406 283.492188 9.316406 269.398438 9.316406 255.308594 C 9.316406 241.214844 9.316406 227.125 9.316406 213.03125 C 9.316406 211.375 10.144531 209.714844 10.144531 208.886719 C 10.972656 208.058594 11.804688 207.230469 12.632812 206.402344 C 56.566406 198.113281 104.640625 188.992188 158.523438 179.046875 C 218.203125 167.441406 285.347656 155.007812 361.605469 140.917969 Z M 368.238281 139.257812 C 366.582031 137.601562 363.265625 136.773438 359.949219 137.601562 C 283.6875 151.691406 216.546875 164.953125 156.863281 176.558594 C 102.984375 186.507812 54.90625 195.625 10.972656 203.914062 C 9.316406 203.914062 7.660156 205.570312 6.828125 207.230469 C 6 208.886719 5.171875 211.375 5.171875 213.03125 C 5.171875 227.125 5.171875 241.214844 5.171875 255.308594 C 5.171875 269.398438 5.171875 283.492188 5.171875 297.582031 C 5.171875 300.070312 6 301.726562 6.828125 303.382812 C 7.660156 305.042969 9.316406 305.871094 10.972656 305.871094 C 54.90625 302.554688 102.984375 299.238281 156.035156 295.09375 C 215.71875 290.949219 282.859375 285.148438 358.292969 280.175781 C 361.605469 280.175781 364.09375 278.515625 366.582031 276.03125 C 369.066406 273.542969 369.894531 271.054688 369.894531 267.742188 C 369.894531 247.847656 369.894531 227.953125 369.894531 208.058594 C 369.894531 188.164062 369.894531 168.269531 369.894531 147.546875 C 369.894531 144.230469 369.066406 141.746094 366.582031 140.085938 Z M 368.238281 139.257812 " fill-opacity="1" fill-rule="nonzero"/><g fill="#ffffff" fill-opacity="1"><g transform="translate(66.889921, 269.148101)"><g><path d="M 25.328125 -2.703125 C 27.953125 -2.984375 30.1875 -3.484375 32.03125 -4.203125 C 33.875 -4.921875 35.304688 -5.738281 36.328125 -6.65625 C 37.347656 -7.582031 38.101562 -8.707031 38.59375 -10.03125 C 39.09375 -11.363281 39.375 -12.632812 39.4375 -13.84375 C 39.5 -15.0625 39.441406 -16.46875 39.265625 -18.0625 C 38.890625 -21.582031 37.929688 -24.363281 36.390625 -26.40625 C 34.847656 -28.457031 32.140625 -29.628906 28.265625 -29.921875 C 30.828125 -31.191406 32.472656 -32.835938 33.203125 -34.859375 C 33.941406 -36.878906 34.15625 -39.34375 33.84375 -42.25 C 33.675781 -43.800781 33.4375 -45.140625 33.125 -46.265625 C 32.8125 -47.398438 32.273438 -48.53125 31.515625 -49.65625 C 30.765625 -50.789062 29.796875 -51.6875 28.609375 -52.34375 C 27.421875 -53 25.847656 -53.46875 23.890625 -53.75 C 21.941406 -54.039062 19.65625 -54.046875 17.03125 -53.765625 L -0.5625 -51.890625 L -0.1875 -48.390625 L 4.046875 -48.84375 L 8.78125 -4.5 L 4.546875 -4.046875 L 4.921875 -0.53125 Z M 13.78125 -5.65625 L 11.640625 -25.640625 L 22.75 -26.828125 C 26.882812 -27.265625 29.734375 -26.703125 31.296875 -25.140625 C 32.859375 -23.585938 33.816406 -21.144531 34.171875 -17.8125 C 34.515625 -14.582031 34.085938 -12.054688 32.890625 -10.234375 C 31.691406 -8.410156 29.023438 -7.28125 24.890625 -6.84375 Z M 11.1875 -29.953125 L 9.171875 -48.734375 L 17.46875 -49.625 C 21.601562 -50.0625 24.441406 -49.570312 25.984375 -48.15625 C 27.535156 -46.738281 28.484375 -44.453125 28.828125 -41.296875 C 29.148438 -38.253906 28.707031 -35.859375 27.5 -34.109375 C 26.289062 -32.367188 23.617188 -31.28125 19.484375 -30.84375 Z M 11.1875 -29.953125 "/></g></g></g><g fill="#ffffff" fill-opacity="1"><g transform="translate(110.335974, 262.161895)"><g><path d="M -0.203125 -49.1875 L 4.109375 -49.65625 L 8.9375 -4.578125 L 4.625 -4.109375 L 5 -0.53125 L 35.5625 -3.796875 L 34.359375 -15.109375 L 30.359375 -14.6875 L 31.109375 -7.59375 L 14 -5.765625 L 9.25 -50.203125 L 14.984375 -50.8125 L 14.609375 -54.390625 L -0.578125 -52.765625 Z M -0.203125 -49.1875 "/></g></g></g><g fill="#ffffff" fill-opacity="1"><g transform="translate(147.100628, 259.706311)"><g><path d="M 25.40625 -1.65625 C 29.101562 -2.050781 32.1875 -2.816406 34.65625 -3.953125 C 37.125 -5.085938 39.03125 -6.453125 40.375 -8.046875 C 41.726562 -9.640625 42.675781 -11.738281 43.21875 -14.34375 C 43.757812 -16.945312 44.015625 -19.550781 43.984375 -22.15625 C 43.960938 -24.769531 43.742188 -28.023438 43.328125 -31.921875 C 42.921875 -35.816406 42.453125 -39.03125 41.921875 -41.5625 C 41.398438 -44.101562 40.597656 -46.585938 39.515625 -49.015625 C 38.429688 -51.441406 37.0625 -53.289062 35.40625 -54.5625 C 33.757812 -55.832031 31.609375 -56.773438 28.953125 -57.390625 C 26.296875 -58.003906 23.117188 -58.113281 19.421875 -57.71875 C 16.304688 -57.382812 13.628906 -56.828125 11.390625 -56.046875 C 9.160156 -55.265625 7.359375 -54.1875 5.984375 -52.8125 C 4.617188 -51.4375 3.53125 -49.96875 2.71875 -48.40625 C 1.914062 -46.851562 1.398438 -44.894531 1.171875 -42.53125 C 0.953125 -40.164062 0.875 -37.863281 0.9375 -35.625 C 1.007812 -33.382812 1.21875 -30.660156 1.5625 -27.453125 C 1.976562 -23.515625 2.441406 -20.285156 2.953125 -17.765625 C 3.472656 -15.253906 4.265625 -12.773438 5.328125 -10.328125 C 6.390625 -7.878906 7.75 -6.015625 9.40625 -4.734375 C 11.0625 -3.460938 13.21875 -2.53125 15.875 -1.9375 C 18.53125 -1.351562 21.707031 -1.257812 25.40625 -1.65625 Z M 24.9375 -6.109375 C 22.613281 -5.859375 20.578125 -5.875 18.828125 -6.15625 C 17.078125 -6.4375 15.578125 -7.023438 14.328125 -7.921875 C 13.085938 -8.816406 12.046875 -9.84375 11.203125 -11 C 10.359375 -12.15625 9.65625 -13.6875 9.09375 -15.59375 C 8.539062 -17.507812 8.101562 -19.382812 7.78125 -21.21875 C 7.457031 -23.0625 7.148438 -25.335938 6.859375 -28.046875 C 6.578125 -30.753906 6.398438 -33.035156 6.328125 -34.890625 C 6.253906 -36.753906 6.285156 -38.675781 6.421875 -40.65625 C 6.566406 -42.644531 6.929688 -44.289062 7.515625 -45.59375 C 8.097656 -46.90625 8.898438 -48.125 9.921875 -49.25 C 10.953125 -50.382812 12.289062 -51.28125 13.9375 -51.9375 C 15.582031 -52.59375 17.566406 -53.046875 19.890625 -53.296875 C 22.640625 -53.585938 25.003906 -53.460938 26.984375 -52.921875 C 28.960938 -52.378906 30.582031 -51.566406 31.84375 -50.484375 C 33.113281 -49.398438 34.171875 -47.816406 35.015625 -45.734375 C 35.859375 -43.660156 36.476562 -41.554688 36.875 -39.421875 C 37.28125 -37.296875 37.65625 -34.601562 38 -31.34375 C 38.351562 -28.09375 38.554688 -25.382812 38.609375 -23.21875 C 38.671875 -21.0625 38.507812 -18.878906 38.125 -16.671875 C 37.738281 -14.460938 37.039062 -12.691406 36.03125 -11.359375 C 35.03125 -10.035156 33.617188 -8.898438 31.796875 -7.953125 C 29.972656 -7.015625 27.6875 -6.398438 24.9375 -6.109375 Z M 24.9375 -6.109375 "/></g></g></g><g fill="#ffffff" fill-opacity="1"><g transform="translate(196.602384, 255.432811)"><g><path d="M 32.828125 -59.859375 L 33.4375 -54.21875 C 30.351562 -58.40625 25.484375 -60.144531 18.828125 -59.4375 C 14.546875 -58.976562 11.09375 -57.984375 8.46875 -56.453125 C 5.851562 -54.921875 3.992188 -52.726562 2.890625 -49.875 C 1.785156 -47.03125 1.160156 -43.976562 1.015625 -40.71875 C 0.867188 -37.457031 1.066406 -33.332031 1.609375 -28.34375 C 1.953125 -25.039062 2.320312 -22.25 2.71875 -19.96875 C 3.113281 -17.695312 3.679688 -15.390625 4.421875 -13.046875 C 5.171875 -10.710938 6.109375 -8.84375 7.234375 -7.4375 C 8.359375 -6.039062 9.75 -4.800781 11.40625 -3.71875 C 13.070312 -2.632812 15.085938 -1.9375 17.453125 -1.625 C 19.828125 -1.3125 22.597656 -1.320312 25.765625 -1.65625 C 29.015625 -2.007812 31.71875 -2.703125 33.875 -3.734375 C 36.03125 -4.773438 37.628906 -6.160156 38.671875 -7.890625 C 39.722656 -9.617188 40.425781 -11.46875 40.78125 -13.4375 C 41.132812 -15.40625 41.269531 -17.769531 41.1875 -20.53125 L 36.65625 -20.28125 C 36.925781 -16.289062 36.253906 -13.078125 34.640625 -10.640625 C 33.023438 -8.210938 29.90625 -6.75 25.28125 -6.25 C 22.375 -5.945312 19.882812 -6.082031 17.8125 -6.65625 C 15.75 -7.226562 14.117188 -8.039062 12.921875 -9.09375 C 11.734375 -10.15625 10.734375 -11.820312 9.921875 -14.09375 C 9.109375 -16.375 8.53125 -18.523438 8.1875 -20.546875 C 7.84375 -22.578125 7.484375 -25.375 7.109375 -28.9375 C 6.742188 -32.300781 6.53125 -35.097656 6.46875 -37.328125 C 6.414062 -39.566406 6.5625 -41.820312 6.90625 -44.09375 C 7.25 -46.363281 7.875 -48.175781 8.78125 -49.53125 C 9.695312 -50.894531 11.03125 -52.050781 12.78125 -53 C 14.53125 -53.957031 16.707031 -54.578125 19.3125 -54.859375 C 24.132812 -55.378906 27.695312 -54.640625 30 -52.640625 C 32.300781 -50.648438 33.832031 -47.5625 34.59375 -43.375 L 38.703125 -43.8125 L 36.9375 -60.296875 Z M 32.828125 -59.859375 "/></g></g></g><g fill="#ffffff" fill-opacity="1"><g transform="translate(241.106436, 252.427974)"><g><path d="M 35.59375 -3.796875 L 50.765625 -5.421875 L 50.328125 -9.578125 L 45.90625 -9.109375 L 25.234375 -33.71875 L 39.375 -61.515625 L 43.890625 -62 L 43.4375 -66.171875 L 28.25 -64.5625 L 28.703125 -60.390625 L 33.140625 -60.859375 L 20.53125 -35.84375 L 13.296875 -35.0625 L 10.796875 -58.46875 L 15.796875 -59 L 15.34375 -63.171875 L -0.65625 -61.46875 L -0.203125 -57.296875 L 4.78125 -57.828125 L 10.390625 -5.3125 L 5.40625 -4.78125 L 5.84375 -0.625 L 21.84375 -2.328125 L 21.40625 -6.484375 L 16.40625 -5.953125 L 13.8125 -30.140625 L 20.71875 -30.875 L 39.390625 -8.40625 L 35.15625 -7.953125 Z M 35.59375 -3.796875 "/></g></g></g><g fill="#ffffff" fill-opacity="1"><g transform="translate(43.250859, 100.36012)"><g><path d="M 21.71875 3.015625 L 36.265625 -36.484375 L 39.5625 5.5 L 46.796875 6.515625 L 63.859375 -38.875 L 66.75 -38.484375 L 67.234375 -41.9375 L 54.6875 -43.671875 L 54.203125 -40.21875 L 58.828125 -39.578125 L 43.640625 1.4375 L 40.078125 -45.703125 L 35.1875 -46.390625 L 18.84375 -2.015625 L 15.46875 -45.609375 L 20.09375 -44.96875 L 20.578125 -48.421875 L 8.03125 -50.171875 L 7.546875 -46.71875 L 10.375 -46.328125 L 14.46875 2.015625 Z M 21.71875 3.015625 "/></g></g></g><g fill="#ffffff" fill-opacity="1"><g transform="translate(107.42255, 108.590912)"><g><path d="M 21.90625 -18 C 24.34375 -17.664062 26.175781 -17.101562 27.40625 -16.3125 C 28.632812 -15.519531 29.523438 -14.140625 30.078125 -12.171875 L 34.6875 4.828125 L 42.609375 5.921875 L 43.078125 2.53125 L 38.859375 1.953125 L 34.921875 -12.34375 C 34.265625 -14.550781 33.363281 -16.1875 32.21875 -17.25 C 34.132812 -17.445312 35.753906 -17.914062 37.078125 -18.65625 C 38.398438 -19.394531 39.429688 -20.378906 40.171875 -21.609375 C 40.921875 -22.835938 41.472656 -24.070312 41.828125 -25.3125 C 42.191406 -26.550781 42.492188 -28.03125 42.734375 -29.75 C 42.972656 -31.46875 43.097656 -32.945312 43.109375 -34.1875 C 43.117188 -35.425781 42.925781 -36.765625 42.53125 -38.203125 C 42.132812 -39.640625 41.472656 -40.84375 40.546875 -41.8125 C 39.617188 -42.789062 38.253906 -43.679688 36.453125 -44.484375 C 34.648438 -45.285156 32.46875 -45.863281 29.90625 -46.21875 L 15.6875 -48.203125 L 11.609375 -48.765625 L 11.140625 -45.40625 L 15.21875 -44.84375 L 9.28125 -2.171875 L 5.203125 -2.734375 L 4.734375 0.65625 L 17.75 2.46875 L 18.21875 -0.921875 L 14.15625 -1.484375 L 16.5625 -18.75 Z M 17.125 -22.75 L 20.015625 -43.53125 L 29.359375 -42.234375 C 31.523438 -41.929688 33.269531 -41.425781 34.59375 -40.71875 C 35.914062 -40.007812 36.820312 -39.085938 37.3125 -37.953125 C 37.800781 -36.828125 38.070312 -35.707031 38.125 -34.59375 C 38.175781 -33.476562 38.085938 -32.082031 37.859375 -30.40625 C 37.628906 -28.789062 37.335938 -27.457031 36.984375 -26.40625 C 36.628906 -25.351562 36.0625 -24.351562 35.28125 -23.40625 C 34.5 -22.457031 33.375 -21.816406 31.90625 -21.484375 C 30.445312 -21.160156 28.632812 -21.148438 26.46875 -21.453125 Z M 17.125 -22.75 "/></g></g></g><g fill="#ffffff" fill-opacity="1"><g transform="translate(152.807653, 114.293872)"><g><path d="M 10.765625 -43.8125 L 15.328125 -43.1875 L 9.59375 -2 L 5.03125 -2.625 L 4.578125 0.640625 L 18.4375 2.5625 L 18.890625 -0.703125 L 14.296875 -1.34375 L 20.03125 -42.53125 L 24.625 -41.890625 L 25.078125 -45.15625 L 11.21875 -47.078125 Z M 10.765625 -43.8125 "/></g></g></g><g fill="#ffffff" fill-opacity="1"><g transform="translate(179.59836, 117.394472)"><g><path d="M 38.984375 -31.984375 L 40.390625 -42.125 L 7.15625 -46.75 L 5.75 -36.609375 L 9.34375 -36.109375 L 10.21875 -42.453125 L 20.9375 -40.96875 L 15.40625 -1.125 L 10.265625 -1.84375 L 9.8125 1.359375 L 24.703125 3.4375 L 25.15625 0.234375 L 20.03125 -0.484375 L 25.5625 -40.328125 L 36.265625 -38.828125 L 35.390625 -32.484375 Z M 38.984375 -31.984375 "/></g></g></g><g fill="#ffffff" fill-opacity="1"><g transform="translate(215.526515, 121.052393)"><g><path d="M 4.40625 0.609375 L 35.265625 4.90625 L 36.65625 -5.046875 L 33.125 -5.53125 L 32.25 0.703125 L 13.234375 -1.953125 L 15.703125 -19.71875 L 33.84375 -17.1875 L 34.375 -20.953125 L 16.234375 -23.484375 L 18.59375 -40.484375 L 36.34375 -38.015625 L 35.484375 -31.78125 L 39.015625 -31.28125 L 40.390625 -41.234375 L 10.796875 -45.359375 L 10.359375 -42.21875 L 14.140625 -41.6875 L 8.625 -2 L 4.84375 -2.53125 Z M 4.40625 0.609375 "/></g></g></g><g fill="#ffffff" fill-opacity="1"><g transform="translate(253.14101, 126.281875)"><g><path d="M 19.984375 -16.421875 C 22.203125 -16.117188 23.867188 -15.601562 24.984375 -14.875 C 26.109375 -14.15625 26.921875 -12.898438 27.421875 -11.109375 L 31.625 4.40625 L 38.859375 5.40625 L 39.296875 2.3125 L 35.453125 1.78125 L 31.859375 -11.25 C 31.242188 -13.269531 30.425781 -14.765625 29.40625 -15.734375 C 31.144531 -15.921875 32.617188 -16.347656 33.828125 -17.015625 C 35.035156 -17.691406 35.976562 -18.59375 36.65625 -19.71875 C 37.34375 -20.84375 37.847656 -21.96875 38.171875 -23.09375 C 38.503906 -24.21875 38.773438 -25.5625 38.984375 -27.125 C 39.203125 -28.695312 39.316406 -30.046875 39.328125 -31.171875 C 39.335938 -32.304688 39.160156 -33.53125 38.796875 -34.84375 C 38.429688 -36.15625 37.828125 -37.253906 36.984375 -38.140625 C 36.140625 -39.035156 34.898438 -39.847656 33.265625 -40.578125 C 31.628906 -41.316406 29.632812 -41.847656 27.28125 -42.171875 L 14.3125 -43.96875 L 10.59375 -44.5 L 10.15625 -41.421875 L 13.875 -40.890625 L 8.46875 -1.96875 L 4.75 -2.5 L 4.3125 0.59375 L 16.1875 2.25 L 16.625 -0.84375 L 12.90625 -1.359375 L 15.09375 -17.109375 Z M 15.59375 -20.75 L 18.234375 -39.71875 L 26.765625 -38.53125 C 28.742188 -38.25 30.335938 -37.78125 31.546875 -37.125 C 32.765625 -36.476562 33.59375 -35.640625 34.03125 -34.609375 C 34.476562 -33.585938 34.722656 -32.570312 34.765625 -31.5625 C 34.816406 -30.550781 34.734375 -29.28125 34.515625 -27.75 C 34.316406 -26.269531 34.054688 -25.046875 33.734375 -24.078125 C 33.410156 -23.117188 32.894531 -22.203125 32.1875 -21.328125 C 31.476562 -20.460938 30.453125 -19.878906 29.109375 -19.578125 C 27.765625 -19.285156 26.101562 -19.28125 24.125 -19.5625 Z M 15.59375 -20.75 "/></g></g></g><g fill="#ffffff" fill-opacity="1"><g transform="translate(295.681817, 131.68861)"><g><path d="M 5.875 0.8125 L 6.578125 -4.203125 C 8.398438 0.015625 12.03125 2.503906 17.46875 3.265625 C 22.363281 3.941406 25.953125 3.40625 28.234375 1.65625 C 30.515625 -0.0820312 31.929688 -2.925781 32.484375 -6.875 C 32.984375 -10.488281 32.507812 -13.210938 31.0625 -15.046875 C 29.613281 -16.890625 26.8125 -18.515625 22.65625 -19.921875 L 17.59375 -21.640625 C 14.8125 -22.585938 13.039062 -23.628906 12.28125 -24.765625 C 11.53125 -25.898438 11.320312 -27.671875 11.65625 -30.078125 C 12.0625 -33.023438 13.003906 -35.125 14.484375 -36.375 C 15.972656 -37.625 18.488281 -38.003906 22.03125 -37.515625 C 28.082031 -36.671875 31.140625 -33.640625 31.203125 -28.421875 L 34.34375 -27.984375 L 35.78125 -38.34375 L 32.640625 -38.78125 L 32.015625 -34.25 C 30.410156 -38.101562 26.945312 -40.398438 21.625 -41.140625 C 17.050781 -41.773438 13.6875 -41.175781 11.53125 -39.34375 C 9.375 -37.507812 8.015625 -34.59375 7.453125 -30.59375 C 6.953125 -26.945312 7.378906 -24.238281 8.734375 -22.46875 C 10.085938 -20.695312 12.800781 -19.113281 16.875 -17.71875 L 22 -15.984375 C 24.707031 -15.054688 26.507812 -13.972656 27.40625 -12.734375 C 28.3125 -11.503906 28.578125 -9.550781 28.203125 -6.875 C 27.835938 -4.238281 26.832031 -2.359375 25.1875 -1.234375 C 23.550781 -0.117188 20.953125 0.1875 17.390625 -0.3125 C 13.691406 -0.820312 11.054688 -2.125 9.484375 -4.21875 C 7.910156 -6.320312 7.289062 -8.835938 7.625 -11.765625 L 4.484375 -12.203125 L 2.734375 0.375 Z M 5.875 0.8125 "/></g></g></g><g fill="#ffffff" fill-opacity="1"><g transform="translate(329.214321, 136.355296)"><g><path d="M 12.109375 -41.328125 C 12.203125 -42.023438 12.316406 -42.570312 12.453125 -42.96875 C 12.585938 -43.375 12.890625 -43.734375 13.359375 -44.046875 C 13.835938 -44.359375 14.484375 -44.457031 15.296875 -44.34375 C 16.503906 -44.175781 17.242188 -43.765625 17.515625 -43.109375 C 17.785156 -42.460938 17.847656 -41.613281 17.703125 -40.5625 C 17.546875 -39.476562 17.1875 -38.421875 16.625 -37.390625 C 16.0625 -36.359375 15.445312 -35.503906 14.78125 -34.828125 C 14.113281 -34.148438 13.457031 -33.539062 12.8125 -33 C 12.164062 -32.457031 11.625 -32.054688 11.1875 -31.796875 L 10.484375 -31.484375 L 9.375 -33.234375 C 9.945312 -33.640625 10.378906 -33.976562 10.671875 -34.25 C 10.960938 -34.519531 11.265625 -34.9375 11.578125 -35.5 C 11.898438 -36.070312 12.117188 -36.75 12.234375 -37.53125 C 12.273438 -37.882812 12.242188 -38.476562 12.140625 -39.3125 C 12.046875 -40.15625 12.035156 -40.828125 12.109375 -41.328125 Z M 12.109375 -41.328125 "/></g></g></g></svg>