<svg xmlns="http://www.w3.org/2000/svg" xmlns:xlink="http://www.w3.org/1999/xlink" width="500" zoomAndPan="magnify" viewBox="0 0 375 374.999991" height="500" preserveAspectRatio="xMidYMid meet" version="1.0"><defs><g/><clipPath id="826cb8b684"><path d="M 165 41.945312 L 213 41.945312 L 213 375 L 165 375 Z M 165 41.945312 " clip-rule="nonzero"/></clipPath><clipPath id="e5646a8565"><path d="M 189 41.945312 L 213 41.945312 L 213 375 L 189 375 Z M 189 41.945312 " clip-rule="nonzero"/></clipPath><clipPath id="fff720a2fd"><path d="M 30.132812 148 L 345 148 L 345 302 L 30.132812 302 Z M 30.132812 148 " clip-rule="nonzero"/></clipPath></defs><g clip-path="url(#826cb8b684)"><path fill="#3c4c54" d="M 176.097656 41.945312 L 203.042969 41.945312 L 203.042969 598.1875 L 212.71875 598.1875 L 212.71875 708.050781 L 165.730469 708.050781 L 165.730469 598.1875 L 176.097656 598.1875 Z M 176.097656 41.945312 " fill-opacity="1" fill-rule="evenodd"/></g><g clip-path="url(#e5646a8565)"><path fill="#2f3e46" d="M 203.042969 41.945312 L 203.042969 598.1875 L 212.71875 598.1875 L 212.71875 708.050781 L 189.226562 708.050781 L 189.226562 41.945312 Z M 203.042969 41.945312 " fill-opacity="1" fill-rule="evenodd"/></g><path fill="#84a98c" d="M 62.085938 43.328125 C 118.746094 54.386719 169.1875 64.75 214.101562 73.042969 C 254.175781 80.640625 290.109375 88.242188 322.585938 94.460938 C 326.730469 95.152344 330.183594 100.679688 330.183594 106.898438 C 330.183594 117.265625 330.183594 127.628906 330.183594 138.683594 C 330.183594 149.050781 330.183594 159.414062 330.183594 169.777344 C 330.183594 175.304688 326.730469 180.144531 322.585938 180.144531 C 290.109375 178.070312 254.175781 175.304688 214.101562 172.542969 C 169.878906 169.777344 119.4375 166.324219 63.464844 162.179688 C 55.175781 161.488281 48.265625 154.578125 48.265625 146.285156 C 48.265625 131.082031 48.265625 116.574219 48.265625 101.371094 C 48.265625 86.171875 48.265625 70.96875 48.265625 56.457031 C 48.265625 48.164062 55.175781 42.636719 62.777344 44.019531 Z M 62.085938 43.328125 " fill-opacity="1" fill-rule="evenodd"/><path fill="#ffffff" d="M 62.085938 52.3125 C 60.703125 52.3125 59.320312 52.3125 57.9375 53.003906 C 57.246094 53.695312 56.558594 55.074219 56.558594 56.457031 C 56.558594 71.660156 56.558594 86.171875 56.558594 101.371094 C 56.558594 115.882812 56.558594 131.082031 56.558594 145.59375 C 56.558594 146.976562 57.246094 148.359375 57.9375 149.738281 C 58.628906 151.121094 60.703125 151.8125 62.085938 151.8125 C 118.746094 155.957031 168.496094 160.105469 212.71875 163.558594 C 252.796875 167.015625 288.726562 169.777344 321.203125 171.851562 C 321.894531 171.851562 322.585938 171.851562 323.277344 171.160156 C 323.964844 170.46875 323.964844 169.777344 323.964844 168.398438 C 323.964844 158.03125 323.964844 147.667969 323.964844 136.613281 C 323.964844 126.246094 323.964844 115.191406 323.964844 104.828125 C 323.964844 103.445312 323.964844 102.753906 323.277344 102.0625 C 322.585938 101.371094 321.894531 100.679688 321.203125 100.679688 C 288.726562 94.460938 252.796875 87.550781 212.71875 80.640625 C 167.804688 72.351562 118.054688 62.675781 61.394531 52.3125 Z M 55.867188 50.929688 C 57.246094 49.546875 59.320312 48.855469 62.085938 49.546875 C 118.746094 60.605469 169.1875 69.585938 213.410156 78.570312 C 253.488281 86.171875 289.417969 93.078125 321.894531 99.296875 C 323.277344 99.296875 323.964844 100.679688 324.65625 101.371094 C 325.347656 102.753906 326.039062 104.136719 326.039062 106.207031 C 326.039062 116.574219 326.039062 127.628906 326.039062 137.992188 C 326.039062 148.359375 326.039062 158.722656 326.039062 169.777344 C 326.039062 171.160156 325.347656 173.234375 324.65625 173.925781 C 323.964844 175.304688 322.585938 175.304688 321.894531 175.304688 C 289.417969 172.542969 253.488281 170.46875 213.410156 167.015625 C 169.1875 163.558594 118.746094 160.105469 62.777344 155.957031 C 60.703125 155.957031 58.628906 154.578125 56.558594 153.195312 C 55.175781 151.8125 53.792969 149.050781 53.792969 146.976562 C 53.792969 132.464844 53.792969 117.265625 53.792969 102.0625 C 53.792969 86.859375 53.792969 72.351562 53.792969 57.148438 C 53.792969 55.074219 54.484375 53.003906 56.558594 51.621094 Z M 55.867188 50.929688 " fill-opacity="1" fill-rule="nonzero"/><g clip-path="url(#fff720a2fd)"><path fill="#52796f" d="M 330.183594 149.050781 C 266.613281 161.488281 210.644531 172.542969 160.203125 182.214844 C 115.289062 191.199219 75.214844 198.800781 38.589844 206.402344 C 33.753906 207.089844 30.300781 213.308594 30.300781 220.21875 C 30.300781 231.96875 30.300781 243.714844 30.300781 255.460938 C 30.300781 267.207031 30.300781 278.953125 30.300781 290.699219 C 30.300781 296.917969 34.445312 302.445312 38.589844 301.757812 C 75.214844 298.992188 115.289062 296.226562 159.511719 293.464844 C 209.261719 290.007812 265.234375 286.554688 328.113281 281.71875 C 337.09375 281.027344 344.695312 272.734375 344.695312 263.753906 C 344.695312 247.167969 344.695312 230.585938 344.695312 213.308594 C 344.695312 196.726562 344.695312 179.453125 344.695312 162.867188 C 344.695312 153.195312 337.09375 146.976562 328.113281 149.050781 Z M 330.183594 149.050781 " fill-opacity="1" fill-rule="evenodd"/></g><path fill="#ffffff" d="M 330.183594 159.414062 C 331.566406 159.414062 333.640625 159.414062 334.332031 160.796875 C 335.714844 161.488281 336.402344 162.867188 336.402344 164.941406 C 336.402344 181.523438 336.402344 198.109375 336.402344 214.691406 C 336.402344 231.277344 336.402344 247.859375 336.402344 264.441406 C 336.402344 265.824219 335.714844 267.898438 334.332031 269.28125 C 332.949219 270.660156 331.566406 271.351562 330.183594 271.351562 C 267.304688 276.191406 211.335938 281.027344 161.585938 284.480469 C 117.363281 287.9375 76.59375 291.390625 40.664062 294.15625 C 39.972656 294.15625 39.28125 293.464844 38.589844 292.773438 C 37.902344 292.082031 37.902344 290.699219 37.902344 290.007812 C 37.902344 278.261719 37.902344 266.515625 37.902344 254.769531 C 37.902344 243.023438 37.902344 231.277344 37.902344 219.527344 C 37.902344 218.148438 38.589844 216.765625 38.589844 216.074219 C 39.28125 215.382812 39.972656 214.691406 40.664062 214 C 77.285156 207.089844 117.363281 199.492188 162.277344 191.199219 C 212.027344 181.523438 267.996094 171.160156 331.566406 159.414062 Z M 337.09375 158.03125 C 335.714844 156.648438 332.949219 155.957031 330.183594 156.648438 C 266.613281 168.398438 210.644531 179.453125 160.894531 189.125 C 115.980469 197.417969 75.90625 205.019531 39.28125 211.929688 C 37.902344 211.929688 36.519531 213.308594 35.828125 214.691406 C 35.136719 216.074219 34.445312 218.148438 34.445312 219.527344 C 34.445312 231.277344 34.445312 243.023438 34.445312 254.769531 C 34.445312 266.515625 34.445312 278.261719 34.445312 290.007812 C 34.445312 292.082031 35.136719 293.464844 35.828125 294.847656 C 36.519531 296.226562 37.902344 296.917969 39.28125 296.917969 C 75.90625 294.15625 115.980469 291.390625 160.203125 287.9375 C 209.953125 284.480469 265.925781 279.644531 328.804688 275.5 C 331.566406 275.5 333.640625 274.117188 335.714844 272.042969 C 337.785156 269.972656 338.476562 267.898438 338.476562 265.132812 C 338.476562 248.550781 338.476562 231.96875 338.476562 215.382812 C 338.476562 198.800781 338.476562 182.214844 338.476562 164.941406 C 338.476562 162.179688 337.785156 160.105469 335.714844 158.722656 Z M 337.09375 158.03125 " fill-opacity="1" fill-rule="nonzero"/><g fill="#ffffff" fill-opacity="1"><g transform="translate(61.441416, 127.762702)"><g><path d="M 18.1875 1.671875 L 28.78125 -31.78125 L 33.15625 3.046875 L 39.203125 3.609375 L 51.65625 -34.84375 L 54.078125 -34.625 L 54.34375 -37.53125 L 43.84375 -38.5 L 43.578125 -35.59375 L 47.4375 -35.234375 L 36.375 -0.5 L 31.59375 -39.625 L 27.5 -40 L 15.59375 -2.40625 L 11.125 -38.578125 L 14.984375 -38.21875 L 15.25 -41.125 L 4.75 -42.09375 L 4.484375 -39.1875 L 6.84375 -38.96875 L 12.140625 1.109375 Z M 18.1875 1.671875 "/></g></g></g><g fill="#ffffff" fill-opacity="1"><g transform="translate(85.891295, 266.306297)"><g><path d="M 21.109375 -2.25 C 23.304688 -2.488281 25.171875 -2.90625 26.703125 -3.5 C 28.242188 -4.101562 29.4375 -4.785156 30.28125 -5.546875 C 31.132812 -6.304688 31.769531 -7.242188 32.1875 -8.359375 C 32.601562 -9.472656 32.832031 -10.535156 32.875 -11.546875 C 32.925781 -12.566406 32.882812 -13.738281 32.75 -15.0625 C 32.4375 -18 31.632812 -20.316406 30.34375 -22.015625 C 29.050781 -23.722656 26.789062 -24.695312 23.5625 -24.9375 C 25.695312 -26 27.066406 -27.375 27.671875 -29.0625 C 28.285156 -30.75 28.460938 -32.800781 28.203125 -35.21875 C 28.066406 -36.519531 27.867188 -37.640625 27.609375 -38.578125 C 27.359375 -39.523438 26.914062 -40.46875 26.28125 -41.40625 C 25.644531 -42.351562 24.832031 -43.097656 23.84375 -43.640625 C 22.863281 -44.179688 21.554688 -44.570312 19.921875 -44.8125 C 18.296875 -45.050781 16.382812 -45.050781 14.1875 -44.8125 L -0.46875 -43.25 L -0.15625 -40.328125 L 3.359375 -40.703125 L 7.3125 -3.75 L 3.796875 -3.375 L 4.109375 -0.4375 Z M 11.484375 -4.734375 L 9.703125 -21.390625 L 18.953125 -22.375 C 22.398438 -22.75 24.773438 -22.28125 26.078125 -20.96875 C 27.390625 -19.664062 28.191406 -17.625 28.484375 -14.84375 C 28.773438 -12.144531 28.414062 -10.039062 27.40625 -8.53125 C 26.40625 -7.03125 24.179688 -6.09375 20.734375 -5.71875 Z M 9.328125 -24.96875 L 7.65625 -40.640625 L 14.5625 -41.375 C 18.007812 -41.75 20.378906 -41.335938 21.671875 -40.140625 C 22.960938 -38.953125 23.75 -37.050781 24.03125 -34.4375 C 24.300781 -31.882812 23.929688 -29.882812 22.921875 -28.4375 C 21.910156 -26.988281 19.679688 -26.078125 16.234375 -25.703125 Z M 9.328125 -24.96875 "/></g></g></g><g fill="#ffffff" fill-opacity="1"><g transform="translate(122.107473, 260.482649)"><g><path d="M -0.15625 -41.015625 L 3.421875 -41.390625 L 7.4375 -3.8125 L 3.859375 -3.4375 L 4.171875 -0.453125 L 29.640625 -3.171875 L 28.640625 -12.609375 L 25.296875 -12.25 L 25.921875 -6.34375 L 11.6875 -4.8125 L 7.734375 -41.84375 L 12.5 -42.359375 L 12.171875 -45.34375 L -0.484375 -44 Z M -0.15625 -41.015625 "/></g></g></g><g fill="#ffffff" fill-opacity="1"><g transform="translate(152.838744, 259.226216)"><g><path d="M 20.828125 -1.359375 C 23.867188 -1.679688 26.398438 -2.3125 28.421875 -3.25 C 30.441406 -4.1875 32.003906 -5.300781 33.109375 -6.59375 C 34.222656 -7.894531 35.003906 -9.613281 35.453125 -11.75 C 35.898438 -13.894531 36.109375 -16.039062 36.078125 -18.1875 C 36.054688 -20.332031 35.875 -23 35.53125 -26.1875 C 35.195312 -29.375 34.816406 -32.007812 34.390625 -34.09375 C 33.960938 -36.175781 33.304688 -38.210938 32.421875 -40.203125 C 31.535156 -42.203125 30.410156 -43.71875 29.046875 -44.75 C 27.691406 -45.789062 25.925781 -46.566406 23.75 -47.078125 C 21.570312 -47.585938 18.960938 -47.679688 15.921875 -47.359375 C 13.378906 -47.085938 11.191406 -46.625 9.359375 -45.96875 C 7.523438 -45.320312 6.039062 -44.4375 4.90625 -43.3125 C 3.78125 -42.1875 2.882812 -40.984375 2.21875 -39.703125 C 1.5625 -38.429688 1.144531 -36.828125 0.96875 -34.890625 C 0.789062 -32.953125 0.726562 -31.0625 0.78125 -29.21875 C 0.832031 -27.382812 1 -25.15625 1.28125 -22.53125 C 1.625 -19.300781 2.003906 -16.65625 2.421875 -14.59375 C 2.847656 -12.53125 3.492188 -10.488281 4.359375 -8.46875 C 5.234375 -6.445312 6.347656 -4.921875 7.703125 -3.890625 C 9.054688 -2.859375 10.820312 -2.097656 13 -1.609375 C 15.1875 -1.117188 17.796875 -1.035156 20.828125 -1.359375 Z M 20.4375 -5.015625 C 18.539062 -4.804688 16.875 -4.820312 15.4375 -5.0625 C 14 -5.300781 12.769531 -5.785156 11.75 -6.515625 C 10.738281 -7.242188 9.882812 -8.082031 9.1875 -9.03125 C 8.5 -9.976562 7.925781 -11.234375 7.46875 -12.796875 C 7.019531 -14.359375 6.660156 -15.890625 6.390625 -17.390625 C 6.128906 -18.898438 5.878906 -20.769531 5.640625 -23 C 5.398438 -25.226562 5.25 -27.101562 5.1875 -28.625 C 5.132812 -30.144531 5.164062 -31.71875 5.28125 -33.34375 C 5.394531 -34.976562 5.6875 -36.332031 6.15625 -37.40625 C 6.632812 -38.476562 7.289062 -39.476562 8.125 -40.40625 C 8.96875 -41.332031 10.066406 -42.0625 11.421875 -42.59375 C 12.773438 -43.125 14.398438 -43.492188 16.296875 -43.703125 C 18.566406 -43.941406 20.515625 -43.84375 22.140625 -43.40625 C 23.765625 -42.96875 25.09375 -42.300781 26.125 -41.40625 C 27.15625 -40.519531 28.019531 -39.222656 28.71875 -37.515625 C 29.414062 -35.804688 29.925781 -34.078125 30.25 -32.328125 C 30.582031 -30.585938 30.890625 -28.378906 31.171875 -25.703125 C 31.460938 -23.035156 31.628906 -20.816406 31.671875 -19.046875 C 31.722656 -17.273438 31.585938 -15.484375 31.265625 -13.671875 C 30.941406 -11.859375 30.367188 -10.40625 29.546875 -9.3125 C 28.722656 -8.226562 27.566406 -7.300781 26.078125 -6.53125 C 24.585938 -5.757812 22.707031 -5.253906 20.4375 -5.015625 Z M 20.4375 -5.015625 "/></g></g></g><g fill="#ffffff" fill-opacity="1"><g transform="translate(191.690775, 254.172352)"><g><path d="M 26.921875 -49.109375 L 27.421875 -44.484375 C 24.910156 -47.941406 20.914062 -49.378906 15.4375 -48.796875 C 11.925781 -48.421875 9.097656 -47.597656 6.953125 -46.328125 C 4.804688 -45.054688 3.28125 -43.253906 2.375 -40.921875 C 1.46875 -38.597656 0.957031 -36.097656 0.84375 -33.421875 C 0.726562 -30.742188 0.890625 -27.363281 1.328125 -23.28125 C 1.617188 -20.5625 1.921875 -18.265625 2.234375 -16.390625 C 2.554688 -14.523438 3.019531 -12.628906 3.625 -10.703125 C 4.238281 -8.785156 5.007812 -7.253906 5.9375 -6.109375 C 6.863281 -4.972656 8.007812 -3.957031 9.375 -3.0625 C 10.738281 -2.164062 12.394531 -1.585938 14.34375 -1.328125 C 16.289062 -1.078125 18.554688 -1.09375 21.140625 -1.375 C 23.816406 -1.65625 26.039062 -2.21875 27.8125 -3.0625 C 29.582031 -3.914062 30.894531 -5.050781 31.75 -6.46875 C 32.613281 -7.882812 33.191406 -9.398438 33.484375 -11.015625 C 33.773438 -12.628906 33.878906 -14.578125 33.796875 -16.859375 L 30.09375 -16.640625 C 30.320312 -13.367188 29.769531 -10.734375 28.4375 -8.734375 C 27.101562 -6.734375 24.535156 -5.53125 20.734375 -5.125 C 18.359375 -4.863281 16.316406 -4.96875 14.609375 -5.4375 C 12.910156 -5.914062 11.570312 -6.585938 10.59375 -7.453125 C 9.613281 -8.328125 8.789062 -9.703125 8.125 -11.578125 C 7.46875 -13.453125 7 -15.210938 6.71875 -16.859375 C 6.4375 -18.515625 6.140625 -20.8125 5.828125 -23.75 C 5.523438 -26.5 5.347656 -28.789062 5.296875 -30.625 C 5.253906 -32.457031 5.375 -34.304688 5.65625 -36.171875 C 5.945312 -38.035156 6.460938 -39.523438 7.203125 -40.640625 C 7.953125 -41.765625 9.046875 -42.71875 10.484375 -43.5 C 11.929688 -44.289062 13.71875 -44.800781 15.84375 -45.03125 C 19.800781 -45.445312 22.722656 -44.835938 24.609375 -43.203125 C 26.503906 -41.566406 27.757812 -39.023438 28.375 -35.578125 L 31.765625 -35.953125 L 30.3125 -49.484375 Z M 26.921875 -49.109375 "/></g></g></g><g fill="#ffffff" fill-opacity="1"><g transform="translate(228.86641, 252.368552)"><g><path d="M 29.671875 -3.171875 L 42.3125 -4.515625 L 41.9375 -8 L 38.25 -7.609375 L 21.015625 -28.109375 L 32.8125 -51.296875 L 36.578125 -51.6875 L 36.203125 -55.171875 L 23.546875 -53.828125 L 23.921875 -50.34375 L 27.609375 -50.734375 L 17.125 -29.859375 L 11.078125 -29.21875 L 8.984375 -48.75 L 13.15625 -49.1875 L 12.78125 -52.671875 L -0.5625 -51.25 L -0.1875 -47.765625 L 3.984375 -48.21875 L 8.65625 -4.453125 L 4.484375 -4 L 4.859375 -0.515625 L 18.203125 -1.9375 L 17.828125 -5.421875 L 13.65625 -4.984375 L 11.515625 -25.109375 L 17.296875 -25.71875 L 32.84375 -7.03125 L 29.296875 -6.65625 Z M 29.671875 -3.171875 "/></g></g></g><g fill="#ffffff" fill-opacity="1"><g transform="translate(115.195799, 132.124833)"><g><path d="M 17.546875 -15.84375 C 19.585938 -15.65625 21.132812 -15.253906 22.1875 -14.640625 C 23.238281 -14.035156 24.03125 -12.925781 24.5625 -11.3125 L 29.0625 2.671875 L 35.703125 3.28125 L 35.96875 0.453125 L 32.4375 0.125 L 28.609375 -11.609375 C 27.972656 -13.421875 27.15625 -14.757812 26.15625 -15.625 C 27.757812 -15.863281 29.09375 -16.3125 30.15625 -16.96875 C 31.226562 -17.632812 32.050781 -18.492188 32.625 -19.546875 C 33.195312 -20.609375 33.601562 -21.660156 33.84375 -22.703125 C 34.09375 -23.742188 34.28125 -24.984375 34.40625 -26.421875 C 34.539062 -27.859375 34.59375 -29.097656 34.5625 -30.140625 C 34.53125 -31.179688 34.316406 -32.289062 33.921875 -33.46875 C 33.535156 -34.644531 32.941406 -35.617188 32.140625 -36.390625 C 31.335938 -37.171875 30.171875 -37.859375 28.640625 -38.453125 C 27.109375 -39.054688 25.265625 -39.457031 23.109375 -39.65625 L 11.1875 -40.765625 L 7.78125 -41.078125 L 7.515625 -38.25 L 10.921875 -37.9375 L 7.640625 -2.15625 L 4.234375 -2.46875 L 3.96875 0.359375 L 14.875 1.375 L 15.140625 -1.453125 L 11.734375 -1.78125 L 13.0625 -16.265625 Z M 13.375 -19.609375 L 14.96875 -37.046875 L 22.796875 -36.3125 C 24.609375 -36.144531 26.082031 -35.789062 27.21875 -35.25 C 28.351562 -34.707031 29.144531 -33.972656 29.59375 -33.046875 C 30.050781 -32.128906 30.320312 -31.207031 30.40625 -30.28125 C 30.5 -29.351562 30.484375 -28.191406 30.359375 -26.796875 C 30.234375 -25.441406 30.039062 -24.316406 29.78125 -23.421875 C 29.53125 -22.523438 29.097656 -21.664062 28.484375 -20.84375 C 27.867188 -20.03125 26.953125 -19.457031 25.734375 -19.125 C 24.523438 -18.789062 23.015625 -18.707031 21.203125 -18.875 Z M 13.375 -19.609375 "/></g></g></g><g fill="#ffffff" fill-opacity="1"><g transform="translate(153.20874, 135.111488)"><g><path d="M 7.25 -36.890625 L 11.09375 -36.546875 L 7.921875 -2.03125 L 4.078125 -2.375 L 3.828125 0.359375 L 15.453125 1.421875 L 15.703125 -1.3125 L 11.859375 -1.671875 L 15.03125 -36.1875 L 18.875 -35.828125 L 19.125 -38.5625 L 7.5 -39.625 Z M 7.25 -36.890625 "/></g></g></g><g fill="#ffffff" fill-opacity="1"><g transform="translate(175.637325, 136.653144)"><g><path d="M 31.21875 -28.15625 L 32 -36.640625 L 4.15625 -39.203125 L 3.375 -30.71875 L 6.375 -30.4375 L 6.859375 -35.75 L 15.84375 -34.921875 L 12.78125 -1.53125 L 8.484375 -1.9375 L 8.234375 0.75 L 20.703125 1.90625 L 20.953125 -0.78125 L 16.65625 -1.1875 L 19.71875 -34.578125 L 28.6875 -33.75 L 28.203125 -28.4375 Z M 31.21875 -28.15625 "/></g></g></g><g fill="#ffffff" fill-opacity="1"><g transform="translate(205.696217, 138.304097)"><g><path d="M 3.6875 0.34375 L 29.5625 2.71875 L 30.328125 -5.625 L 27.375 -5.890625 L 26.890625 -0.65625 L 10.9375 -2.125 L 12.3125 -17.015625 L 27.515625 -15.625 L 27.8125 -18.78125 L 12.609375 -20.171875 L 13.90625 -34.421875 L 28.796875 -33.0625 L 28.328125 -27.84375 L 31.28125 -27.5625 L 32.046875 -35.90625 L 7.234375 -38.1875 L 6.984375 -35.546875 L 10.15625 -35.265625 L 7.109375 -2.015625 L 3.9375 -2.296875 Z M 3.6875 0.34375 "/></g></g></g><g fill="#ffffff" fill-opacity="1"><g transform="translate(237.220266, 141.198196)"><g><path d="M 16 -14.453125 C 17.863281 -14.285156 19.273438 -13.921875 20.234375 -13.359375 C 21.191406 -12.796875 21.914062 -11.785156 22.40625 -10.328125 L 26.515625 2.4375 L 32.5625 3 L 32.796875 0.421875 L 29.59375 0.125 L 26.09375 -10.609375 C 25.519531 -12.265625 24.78125 -13.476562 23.875 -14.25 C 25.3125 -14.46875 26.519531 -14.878906 27.5 -15.484375 C 28.488281 -16.097656 29.242188 -16.882812 29.765625 -17.84375 C 30.285156 -18.800781 30.65625 -19.753906 30.875 -20.703125 C 31.101562 -21.660156 31.273438 -22.796875 31.390625 -24.109375 C 31.515625 -25.421875 31.5625 -26.546875 31.53125 -27.484375 C 31.5 -28.429688 31.304688 -29.441406 30.953125 -30.515625 C 30.609375 -31.597656 30.0625 -32.492188 29.3125 -33.203125 C 28.570312 -33.921875 27.503906 -34.550781 26.109375 -35.09375 C 24.710938 -35.632812 23.035156 -35.992188 21.078125 -36.171875 L 10.203125 -37.171875 L 7.09375 -37.46875 L 6.859375 -34.875 L 9.96875 -34.578125 L 6.96875 -1.953125 L 3.859375 -2.25 L 3.625 0.328125 L 13.5625 1.25 L 13.796875 -1.328125 L 10.6875 -1.609375 L 11.90625 -14.828125 Z M 12.1875 -17.875 L 13.640625 -33.78125 L 20.796875 -33.125 C 22.453125 -32.976562 23.796875 -32.65625 24.828125 -32.15625 C 25.867188 -31.664062 26.59375 -31 27 -30.15625 C 27.40625 -29.3125 27.648438 -28.46875 27.734375 -27.625 C 27.816406 -26.789062 27.800781 -25.738281 27.6875 -24.46875 C 27.570312 -23.21875 27.394531 -22.179688 27.15625 -21.359375 C 26.925781 -20.546875 26.535156 -19.765625 25.984375 -19.015625 C 25.429688 -18.273438 24.597656 -17.753906 23.484375 -17.453125 C 22.378906 -17.148438 21 -17.070312 19.34375 -17.21875 Z M 12.1875 -17.875 "/></g></g></g><g fill="#ffffff" fill-opacity="1"><g transform="translate(272.85331, 144.048617)"><g><path d="M 4.9375 0.453125 L 5.328125 -3.75 C 7.003906 -0.300781 10.117188 1.628906 14.671875 2.046875 C 18.765625 2.421875 21.726562 1.835938 23.5625 0.296875 C 25.394531 -1.242188 26.460938 -3.671875 26.765625 -6.984375 C 27.046875 -10.015625 26.550781 -12.265625 25.28125 -13.734375 C 24.007812 -15.210938 21.617188 -16.460938 18.109375 -17.484375 L 13.828125 -18.703125 C 11.460938 -19.378906 9.941406 -20.175781 9.265625 -21.09375 C 8.585938 -22.007812 8.34375 -23.476562 8.53125 -25.5 C 8.757812 -27.96875 9.460938 -29.753906 10.640625 -30.859375 C 11.828125 -31.960938 13.898438 -32.378906 16.859375 -32.109375 C 21.941406 -31.640625 24.609375 -29.226562 24.859375 -24.875 L 27.5 -24.640625 L 28.3125 -33.3125 L 25.671875 -33.546875 L 25.3125 -29.75 C 23.84375 -32.90625 20.875 -34.6875 16.40625 -35.09375 C 12.570312 -35.445312 9.789062 -34.816406 8.0625 -33.203125 C 6.34375 -31.597656 5.328125 -29.117188 5.015625 -25.765625 C 4.734375 -22.710938 5.191406 -20.472656 6.390625 -19.046875 C 7.585938 -17.617188 9.914062 -16.40625 13.375 -15.40625 L 17.6875 -14.171875 C 19.988281 -13.503906 21.535156 -12.671875 22.328125 -11.671875 C 23.117188 -10.679688 23.410156 -9.066406 23.203125 -6.828125 C 23.003906 -4.609375 22.242188 -3 20.921875 -2 C 19.597656 -1.007812 17.441406 -0.648438 14.453125 -0.921875 C 11.359375 -1.203125 9.117188 -2.1875 7.734375 -3.875 C 6.347656 -5.5625 5.738281 -7.628906 5.90625 -10.078125 L 3.25 -10.328125 L 2.28125 0.203125 Z M 4.9375 0.453125 "/></g></g></g><g fill="#ffffff" fill-opacity="1"><g transform="translate(300.956515, 146.632569)"><g><path d="M 8.484375 -34.890625 C 8.535156 -35.472656 8.609375 -35.929688 8.703125 -36.265625 C 8.796875 -36.609375 9.035156 -36.914062 9.421875 -37.1875 C 9.804688 -37.46875 10.34375 -37.578125 11.03125 -37.515625 C 12.039062 -37.421875 12.664062 -37.109375 12.90625 -36.578125 C 13.15625 -36.046875 13.238281 -35.34375 13.15625 -34.46875 C 13.070312 -33.5625 12.816406 -32.664062 12.390625 -31.78125 C 11.972656 -30.90625 11.5 -30.171875 10.96875 -29.578125 C 10.4375 -28.984375 9.910156 -28.445312 9.390625 -27.96875 C 8.867188 -27.488281 8.429688 -27.132812 8.078125 -26.90625 L 7.515625 -26.609375 L 6.515625 -28.03125 C 6.984375 -28.382812 7.332031 -28.679688 7.5625 -28.921875 C 7.789062 -29.171875 8.023438 -29.535156 8.265625 -30.015625 C 8.503906 -30.503906 8.65625 -31.070312 8.71875 -31.71875 C 8.738281 -32.007812 8.691406 -32.503906 8.578125 -33.203125 C 8.472656 -33.910156 8.441406 -34.472656 8.484375 -34.890625 Z M 8.484375 -34.890625 "/></g></g></g></svg>